<svg width="141" height="81" viewBox="0 0 141 81" fill="none" xmlns="http://www.w3.org/2000/svg">
<g clip-path="url(#clip0_2239_28789)">
<path d="M13.9087 49.4074L14.1204 54.8825H13.697C13.062 52.9423 12.5063 51.64 12.0036 50.9224C11.5009 50.2048 10.8129 49.8593 9.88685 49.8593H9.62226V64.2114H11.4744V64.6633H3.56303V64.2114H5.4152V49.8593H5.12414C4.19806 49.8593 3.48366 50.2314 2.98092 50.949C2.47819 51.6932 1.92255 52.9955 1.31398 54.8559H0.890625L1.1023 49.3809H13.9087V49.4074Z" fill="black"/>
<path d="M15.8145 49.4071H22.5881V49.8324H21.318V56.5832H25.6309V49.8324H24.3609V49.4071H31.161V49.8324H29.8909V64.2642H31.161V64.6895H24.3873V64.2642H25.6574V57.1679H21.3445V64.2642H22.5881V64.6895H15.8145V64.2642H17.0845V49.8324H15.8145V49.4071Z" fill="black"/>
<path d="M32.5099 49.4071H43.8082L44.0198 53.7128H43.6229C43.0144 52.251 42.3793 51.241 41.7179 50.6829C41.0564 50.1247 40.0774 49.8589 38.7808 49.8589H38.0135V56.5832H38.7544C39.4423 56.5832 39.998 56.3174 40.4743 55.8124C40.9241 55.3074 41.268 54.5898 41.4533 53.7393H41.7708V60.2244H41.4003C41.1357 59.1347 40.7918 58.3639 40.342 57.8855C39.8921 57.4071 39.2836 57.1945 38.5163 57.1945H37.9871V64.1845H38.8073C40.1303 64.1845 41.268 63.7858 42.1941 62.9885C43.1202 62.1912 43.7552 61.1546 44.1257 59.9054H44.549L44.3638 64.6629H32.457V64.1845H33.7271V49.8855H32.457V49.4071H32.5099Z" fill="black"/>
<path d="M62.2769 49.4073H68.0715V49.8326H66.8809V64.2645H68.0715V64.6897H61.4567V64.2645H62.6473V50.6299H62.568L59.3134 64.6631H56.5881L52.7779 50.5502H52.6986V64.2379H53.8892V64.6631H50.9258V64.2379H52.1165V49.806H50.9258V49.3807H56.7733L59.6574 60.5967L62.2769 49.4073Z" fill="black"/>
<path d="M78.416 64.238L76.8284 59.5336H72.542L70.875 64.238H72.5155V64.6632H69.1816V64.238H70.2136L75.7436 49.2479H77.5164L82.9935 64.238H83.999V64.6632H76.9078V64.238H78.416ZM74.7646 53.341L72.7272 59.0552H76.6432L74.7646 53.341Z" fill="black"/>
<path d="M91.6731 56.929H90.5354V64.238H91.9377V64.6633H84.873V64.238H86.2754V49.8061H84.873V49.3809H91.435C93.3136 49.3809 94.6631 49.4872 95.4304 49.6732C96.2242 49.8593 96.7798 50.0985 97.0973 50.3908C97.7853 50.949 98.1293 51.8526 98.1293 53.1018C98.1293 54.351 97.8382 55.228 97.2296 55.7596C96.6211 56.2912 95.695 56.6101 94.4514 56.7164V56.7696C95.6156 56.929 96.4358 57.2745 96.9121 57.8061C97.3884 58.3377 97.6001 59.2413 97.6001 60.5171V61.6599C97.6001 62.4041 97.653 62.9357 97.7324 63.1749C97.8117 63.4141 97.9705 63.5736 98.2351 63.5736C98.4997 63.5736 98.7114 63.4407 98.8437 63.2015C98.976 62.9623 99.1347 62.4573 99.267 61.6865L99.6374 61.7397C99.4787 62.9623 99.1876 63.8128 98.7907 64.238C98.3938 64.6633 97.6001 64.8759 96.4094 64.8759C95.2187 64.8759 94.372 64.5835 93.8693 64.0254C93.3665 63.4672 93.1284 62.4041 93.1284 60.8626V59.2679C93.1284 58.444 93.0226 57.8593 92.8109 57.4872C92.5992 57.1417 92.2288 56.929 91.6731 56.929ZM90.5089 49.8061V56.5304H91.1969C92.0171 56.5304 92.6257 56.2646 93.0226 55.7596C93.4195 55.2546 93.6311 54.4307 93.6311 53.2613V52.6234C93.6311 51.4805 93.4459 50.7098 93.049 50.3377C92.6786 49.9656 92.0436 49.7795 91.2233 49.7795H90.5089V49.8061Z" fill="black"/>
<path d="M108.342 60.703L112.125 49.806H110.432V49.3807H113.766V49.806H112.734L107.495 64.8758H105.669L100.113 49.806H99.1074V49.3807H106.199V49.806H104.664L108.342 60.703Z" fill="black"/>
<path d="M114.746 49.4071H126.044L126.256 53.7128H125.859C125.251 52.251 124.615 51.241 123.954 50.6829C123.293 50.1247 122.314 49.8589 121.017 49.8589H120.25V56.5832H120.991C121.678 56.5832 122.234 56.3174 122.71 55.8124C123.187 55.3074 123.504 54.5898 123.689 53.7393H124.007V60.2244H123.663C123.398 59.1347 123.054 58.3639 122.605 57.8855C122.155 57.4071 121.546 57.1945 120.805 57.1945H120.276V64.1845H121.096C122.419 64.1845 123.557 63.7858 124.483 62.9885C125.409 62.1912 126.044 61.1546 126.415 59.9054H126.838L126.653 64.6629H114.746V64.1845H116.016V49.8855H114.746V49.4071Z" fill="black"/>
<path d="M128.743 49.4071H136.549V49.8855H134.247V64.1845H135.041C136.258 64.1845 137.263 63.8124 137.978 63.0417C138.718 62.2975 139.459 61.128 140.2 59.5599H140.65L140.227 64.6629H128.717V64.1845H129.987V49.8855H128.717V49.4071H128.743Z" fill="black"/>
<path d="M38.7277 76.0385C39.0717 76.4372 39.2304 76.9421 39.2304 77.58C39.2304 78.3774 38.9394 79.0152 38.3308 79.4405C37.7487 79.8657 36.8491 80.1049 35.7113 80.1049H31.3984V70.6963H35.4467C36.4787 70.6963 37.2989 70.9089 37.881 71.3342C38.4631 71.7594 38.7542 72.3441 38.7542 73.1149C38.7542 73.6465 38.6219 74.0717 38.3837 74.4438C38.1456 74.8159 37.7752 75.0817 37.3254 75.2677C37.9075 75.374 38.3837 75.6398 38.7277 76.0385ZM32.3774 71.4936V74.8956H35.3674C36.1347 74.8956 36.7168 74.7627 37.1137 74.4704C37.5106 74.178 37.7223 73.7528 37.7223 73.1946C37.7223 72.6365 37.5106 72.2112 37.1137 71.9189C36.7168 71.6265 36.1082 71.4936 35.3674 71.4936H32.3774ZM37.59 78.8292C38.0133 78.5368 38.225 78.085 38.225 77.4737C38.225 76.3043 37.3783 75.7195 35.6849 75.7195H32.3774V79.2544H35.6849C36.5316 79.2544 37.1666 79.1215 37.59 78.8292Z" fill="black"/>
<path d="M52.9098 79.2283V80.0788H46.2949V70.6702H52.7246V71.5207H47.3004V74.8695H52.1425V75.72H47.3004V79.2017H52.9098V79.2283Z" fill="black"/>
<path d="M71.5633 76.8358V80.0784H70.5843V76.8358L66.8535 70.6963H67.9119L71.1135 75.9853L74.3151 70.6963H75.2941L71.5633 76.8358Z" fill="black"/>
<path d="M82.8355 79.5472C82.0947 79.122 81.4861 78.5638 81.0628 77.8462C80.6394 77.1286 80.4277 76.3047 80.4277 75.401C80.4277 74.4974 80.6394 73.6734 81.0628 72.9558C81.4861 72.2382 82.0682 71.6535 82.8355 71.2548C83.5764 70.8296 84.4231 70.6436 85.3492 70.6436C86.2753 70.6436 87.122 70.8562 87.8629 71.2548C88.6037 71.6535 89.1858 72.2382 89.6092 72.9558C90.0325 73.6734 90.2442 74.4974 90.2442 75.401C90.2442 76.3047 90.0325 77.1286 89.6092 77.8462C89.1858 78.5638 88.6037 79.1485 87.8629 79.5472C87.122 79.9459 86.2753 80.1585 85.3492 80.1585C84.4231 80.1585 83.6029 79.9459 82.8355 79.5472ZM87.3601 78.7764C87.9687 78.4309 88.4185 77.9791 88.7625 77.3678C89.1064 76.7831 89.2652 76.1186 89.2652 75.3744C89.2652 74.6303 89.1064 73.9658 88.7625 73.3811C88.4185 72.7964 87.9687 72.318 87.3601 71.9725C86.7515 71.6269 86.0901 71.4675 85.3492 71.4675C84.6083 71.4675 83.9468 71.6269 83.3383 71.9725C82.7297 72.318 82.2534 72.7698 81.9095 73.3811C81.5655 73.9924 81.4067 74.6303 81.4067 75.3744C81.4067 76.1186 81.5655 76.7831 81.9095 77.3678C82.2534 77.9525 82.7297 78.4309 83.3383 78.7764C83.9468 79.122 84.6083 79.2814 85.3492 79.2814C86.0901 79.2814 86.778 79.122 87.3601 78.7764Z" fill="black"/>
<path d="M98.2359 79.122C97.548 78.431 97.2305 77.3944 97.2305 76.0655V70.6702H98.2095V76.0124C98.2095 77.1021 98.4476 77.926 98.9503 78.4575C99.4531 78.9891 100.141 79.2549 101.067 79.2549C101.993 79.2549 102.708 78.9891 103.21 78.4575C103.713 77.926 103.951 77.1021 103.951 76.0124V70.6702H104.904V76.0655C104.904 77.3944 104.56 78.4044 103.898 79.122C103.237 79.813 102.284 80.1585 101.067 80.1585C99.85 80.1585 98.8974 79.813 98.2359 79.122Z" fill="black"/>
<path d="M116.862 0.158203L93.5246 40.8227L90.958 45.3409H49.4166L46.8236 40.8227L23.4863 0.158203H116.862Z" fill="url(#paint0_linear_2239_28789)"/>
<path d="M62.6198 8.53029L57.6719 3.08179H82.6761L77.7546 8.53029L70.1872 16.9024L62.6198 8.53029Z" fill="white"/>
<path d="M89.2926 1.43359L80.0317 21.3671L70.1888 42.5499L60.3194 21.3671L51.0586 1.43359L60.0548 11.3738L70.1888 22.5632L80.3228 11.3738L89.2926 1.43359Z" fill="#003945"/>
<path d="M82.6761 3.08179L77.7546 8.53029L70.1872 16.9024L62.6198 8.53029L57.6719 3.08179H82.6761Z" fill="white"/>
<path d="M82.6761 3.08179L77.7546 8.53029L70.1872 16.9024L62.6198 8.53029L57.6719 3.08179H82.6761Z" fill="white"/>
<path d="M82.6761 3.08179L77.7546 8.53029L70.1872 16.9024L62.6198 8.53029L57.6719 3.08179H82.6761Z" fill="#003945"/>
<path d="M51.0575 1.43359L39.3359 22.5632L57.6724 12.7293L51.0575 1.43359Z" fill="#003945"/>
<path d="M39.3359 22.5635L56.7198 36.0386L49.9197 16.9023L39.3359 22.5635Z" fill="white"/>
<path d="M89.3453 1.43359L101.067 22.5632L82.7305 12.7293L89.3453 1.43359Z" fill="#003945"/>
<path d="M101.066 22.5635L83.709 36.0386L90.5091 16.9023L101.066 22.5635Z" fill="white"/>
</g>
<defs>
<linearGradient id="paint0_linear_2239_28789" x1="23.4877" y1="22.7496" x2="116.869" y2="22.7496" gradientUnits="userSpaceOnUse">
<stop stop-color="#0BF7CE"/>
<stop offset="1" stop-color="#0FFA99"/>
</linearGradient>
<clipPath id="clip0_2239_28789">
<rect width="139.759" height="80" fill="white" transform="translate(0.890625 0.158203)"/>
</clipPath>
</defs>
</svg>
