<svg width="24" height="25" viewBox="0 0 24 25" fill="none" xmlns="http://www.w3.org/2000/svg">
<path d="M18.031 16.7752L22.314 21.0572L20.899 22.4722L16.617 18.1892C15.0237 19.4664 13.042 20.1611 11 20.1582C6.032 20.1582 2 16.1262 2 11.1582C2 6.1902 6.032 2.1582 11 2.1582C15.968 2.1582 20 6.1902 20 11.1582C20.0029 13.2002 19.3082 15.1819 18.031 16.7752ZM16.025 16.0332C17.2941 14.7281 18.0029 12.9786 18 11.1582C18 7.2902 14.867 4.1582 11 4.1582C7.132 4.1582 4 7.2902 4 11.1582C4 15.0252 7.132 18.1582 11 18.1582C12.8204 18.1611 14.5699 17.4523 15.875 16.1832L16.025 16.0332V16.0332Z" fill="#011519"/>
</svg>
